<?xml version="1.0" standalone="no"?>
<!DOCTYPE svg PUBLIC "-//W3C//DTD SVG 20010904//EN"
 "http://www.w3.org/TR/2001/REC-SVG-20010904/DTD/svg10.dtd">
<svg version="1.0" xmlns="http://www.w3.org/2000/svg"
 width="16.000000pt" height="16.000000pt" viewBox="0 0 16.000000 16.000000"
 preserveAspectRatio="xMidYMid meet">
<metadata>
Created by potrace 1.11, written by Peter Selinger 2001-2013
</metadata>
<g transform="translate(0.000000,16.000000) scale(0.006154,-0.006154)"
fill="#000000" stroke="none">
<path d="M1135 2544 c-477 -84 -816 -416 -925 -905 -59 -262 -43 -578 40 -824
168 -497 574 -782 1108 -777 247 1 456 60 623 173 127 86 257 247 335 414 69
150 83 204 98 376 l4 37 -306 -2 -305 -1 -14 -70 c-27 -137 -117 -279 -212
-333 -89 -51 -232 -70 -348 -46 -223 46 -379 238 -429 529 -9 57 -12 283 -3
330 4 22 10 58 13 80 11 64 61 201 97 261 19 31 61 82 95 113 96 91 201 131
339 131 224 0 379 -114 440 -322 l16 -56 300 -1 301 -1 -6 63 c-10 98 -55 241
-106 333 -150 268 -426 449 -765 503 -88 14 -298 11 -390 -5z"/>
</g>
</svg>
